<svg width="150" height="40" viewBox="0 0 150 40" fill="none" xmlns="http://www.w3.org/2000/svg">
<path fill-rule="evenodd" clip-rule="evenodd" d="M20.5781 40C28.9715 40 36.1574 34.8296 39.1243 27.5H56.5319C59.4988 34.8296 66.6846 40 75.0781 40C83.4715 40 90.6574 34.8296 93.6243 27.5H111.032C113.999 34.8296 121.185 40 129.578 40C140.624 40 149.578 31.0457 149.578 20C149.578 8.9543 140.624 0 129.578 0C121.185 0 113.999 5.17043 111.032 12.5H93.6243C90.6574 5.17043 83.4715 0 75.0781 0C66.6846 0 59.4988 5.17043 56.5319 12.5H39.1243C36.1574 5.17043 28.9715 0 20.5781 0C9.5324 0 0.578094 8.9543 0.578094 20C0.578094 31.0457 9.5324 40 20.5781 40Z" fill="#F1F0F0"/>
</svg>
