<svg width="27" height="26" viewBox="0 0 27 26" fill="none" xmlns="http://www.w3.org/2000/svg">
<path d="M22.7468 1.48375C21.4736 2.17756 20.2685 3.64724 19.6061 5.12381C19.2098 4.97716 18.7608 4.88972 18.3128 4.89342C17.5662 4.89955 16.8233 5.15838 16.3355 5.81437C16.3804 5.81463 16.4254 5.81528 16.4706 5.81691C17.0901 5.83936 17.7358 5.98976 18.3616 6.2276C19.5265 6.67034 20.6532 7.40799 21.3164 8.348C21.9613 6.79671 21.2743 6.05662 20.4258 5.53821C21.0205 4.23961 22.1893 2.82676 23.1834 2.28502L22.7468 1.48375ZM16.3134 6.72757C16.1967 6.72663 16.08 6.73256 15.9639 6.74531C15.3696 6.81232 14.9575 7.0345 14.7126 7.47916C12.4156 11.6493 12.6652 13.422 12.0213 15.3959C11.6994 16.3829 11.142 17.3775 9.97734 18.6001C8.81272 19.8225 7.0396 21.2928 4.23006 23.3147C3.58411 23.7796 3.17742 24.1663 3.01196 24.3989C2.97719 24.448 2.98682 24.4409 2.97278 24.4708C3.07923 24.4943 3.28797 24.5347 3.65883 24.5067C4.16183 24.4686 4.8602 24.3413 5.71333 24.1178C10.0459 22.9827 14.0509 20.288 16.8713 17.4106C18.2815 15.9719 19.3954 14.4878 20.1085 13.1501C20.8216 11.8124 21.1142 10.622 20.9823 9.82341C20.8164 8.81887 19.4973 7.63549 18.0374 7.08053C17.4899 6.87244 16.9316 6.75018 16.436 6.73036C16.3951 6.72872 16.3543 6.72779 16.3134 6.72757ZM16.4136 7.63052C16.501 7.63356 16.5852 7.65866 16.6654 7.70823C15.5023 9.71762 14.2875 11.8193 13.6001 14.7258C12.4368 14.118 14.9022 7.57801 16.4136 7.63052Z" fill="black"/>
</svg>
