<svg width="150" height="40" viewBox="0 0 150 40" fill="none" xmlns="http://www.w3.org/2000/svg">
<circle cx="20.5781" cy="20" r="20" fill="#D9D9D9"/>
<circle cx="129.578" cy="20" r="20" fill="#D9D9D9"/>
<circle cx="75.0781" cy="20" r="20" fill="#D9D9D9"/>
<rect x="37.453" y="12.5" width="20" height="15" fill="#D9D9D9"/>
<rect x="92.7032" y="12.5" width="20" height="15" fill="#D9D9D9"/>
<path fill-rule="evenodd" clip-rule="evenodd" d="M132.567 11.5339C133.229 10.0574 134.434 8.5877 135.708 7.89389L136.144 8.69516C135.15 9.23689 133.981 10.6497 133.387 11.9483C134.235 12.4668 134.922 13.2068 134.277 14.7581C133.614 13.8181 132.487 13.0805 131.322 12.6377C130.697 12.3999 130.051 12.2495 129.432 12.227C129.386 12.2254 129.341 12.2248 129.296 12.2245C129.784 11.5685 130.527 11.3097 131.274 11.3036C131.722 11.2999 132.171 11.3873 132.567 11.5339ZM128.925 13.1554C129.041 13.1427 129.158 13.1368 129.274 13.1377C129.315 13.1379 129.356 13.1389 129.397 13.1405C129.892 13.1603 130.451 13.2826 130.998 13.4907C132.458 14.0456 133.777 15.229 133.943 16.2335C133.961 16.3443 133.972 16.4626 133.974 16.5878C134.195 16.1186 134.451 15.6143 134.752 15.069C134.997 14.6244 135.409 14.4022 136.003 14.3352C136.119 14.3224 136.236 14.3165 136.353 14.3174C136.393 14.3176 136.434 14.3186 136.475 14.3202C136.971 14.34 137.529 14.4623 138.077 14.6704C139.536 15.2253 140.856 16.4087 141.021 17.4133C141.153 18.2119 140.861 19.4022 140.148 20.7399C139.435 22.0777 138.321 23.5618 136.91 25.0004C134.09 27.8778 130.085 30.5726 125.752 31.7077C124.899 31.9312 124.201 32.0585 123.698 32.0966C123.327 32.1246 123.118 32.0842 123.012 32.0606C123.016 32.0518 123.018 32.0461 123.02 32.0413C123.024 32.03 123.027 32.0232 123.051 31.9888C123.217 31.7561 123.623 31.3694 124.269 30.9045C127.079 28.8826 128.852 27.4124 130.016 26.1899C131.181 24.9674 131.739 23.9727 132.06 22.9858C132.249 22.4091 132.36 21.8496 132.482 21.2424C132.547 20.9146 132.616 20.5728 132.7 20.207C131.996 21.3675 131.019 22.6102 129.832 23.8207C127.012 26.6981 123.007 29.3929 118.674 30.528C117.821 30.7514 117.123 30.8788 116.62 30.9169C116.249 30.9449 116.04 30.9045 115.934 30.8809C115.938 30.872 115.94 30.8664 115.942 30.8616C115.946 30.8503 115.948 30.8435 115.973 30.8091C116.138 30.5764 116.545 30.1897 117.191 29.7248C120 27.7029 121.774 26.2327 122.938 25.0102C124.103 23.7876 124.66 22.793 124.982 21.806C125.17 21.2294 125.282 20.6699 125.403 20.0627C125.698 18.5917 126.048 16.8412 127.673 13.8893C127.918 13.4446 128.33 13.2225 128.925 13.1554ZM129.626 14.1184C129.546 14.0688 129.462 14.0437 129.374 14.0407C127.863 13.9881 125.398 20.5282 126.561 21.1359C127.248 18.2294 128.463 16.1278 129.626 14.1184ZM139.645 12.7137C140.308 11.2371 141.513 9.76741 142.786 9.0736L143.223 9.87487C142.228 10.4166 141.06 11.8295 140.465 13.1281C141.313 13.6465 142 14.3866 141.356 15.9379C140.692 14.9978 139.566 14.2602 138.401 13.8175C137.775 13.5796 137.129 13.4292 136.51 13.4068C136.465 13.4051 136.42 13.4045 136.375 13.4042C136.862 12.7482 137.605 12.4894 138.352 12.4833C138.8 12.4796 139.249 12.567 139.645 12.7137ZM136.705 15.2981C136.624 15.2485 136.54 15.2234 136.453 15.2204C134.941 15.1679 132.476 21.7079 133.639 22.3156C134.327 19.4091 135.541 17.3075 136.705 15.2981Z" fill="black"/>
<path d="M84.7468 8.48375C83.4736 9.17756 82.2685 10.6472 81.6061 12.1238C81.2098 11.9772 80.7608 11.8897 80.3128 11.8934C79.5662 11.8996 78.8233 12.1584 78.3355 12.8144C78.3804 12.8146 78.4254 12.8153 78.4706 12.8169C79.0901 12.8394 79.7358 12.9898 80.3616 13.2276C81.5265 13.6703 82.6532 14.408 83.3164 15.348C83.9613 13.7967 83.2743 13.0566 82.4258 12.5382C83.0205 11.2396 84.1893 9.82676 85.1834 9.28502L84.7468 8.48375ZM78.3134 13.7276C78.1967 13.7266 78.08 13.7326 77.9639 13.7453C77.3696 13.8123 76.9575 14.0345 76.7126 14.4792C74.4156 18.6493 74.6652 20.422 74.0213 22.3959C73.6994 23.3829 73.142 24.3775 71.9773 25.6001C70.8127 26.8225 69.0396 28.2928 66.2301 30.3147C65.5841 30.7796 65.1774 31.1663 65.012 31.3989C64.9772 31.448 64.9868 31.4409 64.9728 31.4708C65.0792 31.4943 65.288 31.5347 65.6588 31.5067C66.1618 31.4686 66.8602 31.3413 67.7133 31.1178C72.0459 29.9827 76.0509 27.288 78.8713 24.4106C80.2815 22.9719 81.3954 21.4878 82.1085 20.1501C82.8216 18.8124 83.1142 17.622 82.9823 16.8234C82.8164 15.8189 81.4973 14.6355 80.0374 14.0805C79.4899 13.8724 78.9316 13.7502 78.436 13.7304C78.3951 13.7287 78.3543 13.7278 78.3134 13.7276ZM78.4136 14.6305C78.501 14.6336 78.5852 14.6587 78.6654 14.7082C77.5023 16.7176 76.2875 18.8193 75.6001 21.7258C74.4368 21.118 76.9022 14.578 78.4136 14.6305Z" fill="black"/>
<path d="M19.3901 15.504V24H16.7381V19.764L15.4301 24H13.1501L11.8421 19.764V24H9.17809V15.504H12.4421L14.3141 20.604L16.1381 15.504H19.3901ZM21.9362 16.692C21.4722 16.692 21.1002 16.568 20.8202 16.32C20.5402 16.072 20.4002 15.76 20.4002 15.384C20.4002 15 20.5402 14.684 20.8202 14.436C21.1002 14.18 21.4722 14.052 21.9362 14.052C22.3922 14.052 22.7602 14.18 23.0402 14.436C23.3202 14.684 23.4602 15 23.4602 15.384C23.4602 15.76 23.3202 16.072 23.0402 16.32C22.7602 16.568 22.3922 16.692 21.9362 16.692ZM23.2562 17.232V24H20.5922V17.232H23.2562ZM28.8993 24L27.7593 22.476L26.9073 24H23.9793L26.2473 20.436L23.8593 17.232H26.8353L27.9753 18.768L28.8393 17.232H31.7673L29.4273 20.712L31.8753 24H28.8993Z" fill="#325962"/>
</svg>
