<?xml version="1.0" encoding="UTF-8"?>
<svg id="Layer_2" data-name="Layer 2" xmlns="http://www.w3.org/2000/svg" viewBox="0 0 169.83 194.34">
  <defs>
    <style>
      .cls-1 {
        fill: #f8f7f0;
      }

      .cls-2 {
        fill: #ec9792;
      }

      .cls-3 {
        fill: #335962;
      }
    </style>
  </defs>
  <g id="Layer_1-2" data-name="Layer 1">
    <g>
      <path class="cls-2" d="M157.71,36.46v-12.17h-12.12V12.17h-12.12V0h-12.12L48.52,12.17h-12.12v12.13h-12.12v12.13H12.12v60.75h12.12v24.29h12.12v24.29h12.12v12.13h12.12v12.13h12.12v12.13h12.12l12.12,12.17h12.12v-12.17h12.12v-12.13h12.12v-24.25h12.12v-24.29h12.28v-24.29h12.12V36.46h-12.12Zm-36.4,48.59h-12.12v30.36l-36.4-18.23v-12.13h-12.12v-12.13h12.12v-24.33l36.4-20.6V60.75h12.12v24.29Z"/>
      <path class="cls-3" d="M145.59,36.46v-12.17h-12.12V12.17h-12.12V0H36.4V12.17h-12.12v12.13H12.12v12.13H0v60.75H12.12v24.29h12.12v24.29h12.12v12.13h12.12v12.13h12.12v12.13h12.12v12.21h24.28v-12.17h12.12v-12.13h12.12v-24.29h12.12v-24.29h12.12v-24.29h12.24V36.46h-12.12Zm-36.4,48.59h-12.12v12.13H60.68v-12.13h-12.12v-12.13h12.12v-24.33h36.4v12.13h12.12v24.33Z"/>
      <path class="cls-2" d="M121.31,36.46v-12.17h-12.12V12.17H36.4v12.13h-12.12v12.13H12.12v60.75h12.12v12.13h12.12v24.29h12.12v24.29h12.12v12.13h12.12v12.13h12.12v-12.13h12.12v-24.25h12.12v-24.29h12.12v-24.29h12.12V36.46h-12Zm0,36.42v12.13h-12.12v12.17h-12.12v12.13H60.71v-12.13h-12.12v-12.13h-12.2v-24.29h12.12v-12.17h12.12v-12.13h36.36v12.13h12.12v12.13h12.12v12.17h.08Z"/>
      <path class="cls-1" d="M72.8,157.88h12.12v12.13h-12.12v-12.13Z"/>
      <path class="cls-1" d="M72.8,133.63h-12.12v24.25h12.12v-24.25Z"/>
      <path class="cls-1" d="M48.52,121.46h12.12v12.17h-12.12v-12.17Z"/>
      <path class="cls-1" d="M24.28,72.88h12.12v12.13h-12.12v-12.13Z"/>
      <path class="cls-1" d="M36.4,48.59h12.12v-12.13h12.16v-12.17h-24.28v12.17h-12.12v24.25h12.12v-12.13Z"/>
    </g>
  </g>
</svg>