<svg width="23" height="10" viewBox="0 0 23 10" fill="none" xmlns="http://www.w3.org/2000/svg">
<path d="M10.3901 1.504V10H7.73809V5.764L6.43009 10H4.15009L2.84209 5.764V10H0.178094V1.504H3.44209L5.31409 6.604L7.1381 1.504H10.3901ZM12.9362 2.692C12.4722 2.692 12.1002 2.568 11.8202 2.32C11.5402 2.072 11.4002 1.76 11.4002 1.384C11.4002 1 11.5402 0.684 11.8202 0.435999C12.1002 0.179999 12.4722 0.0519993 12.9362 0.0519993C13.3922 0.0519993 13.7602 0.179999 14.0402 0.435999C14.3202 0.684 14.4602 1 14.4602 1.384C14.4602 1.76 14.3202 2.072 14.0402 2.32C13.7602 2.568 13.3922 2.692 12.9362 2.692ZM14.2562 3.232V10H11.5922V3.232H14.2562ZM19.8993 10L18.7593 8.476L17.9073 10H14.9793L17.2473 6.436L14.8593 3.232H17.8353L18.9753 4.768L19.8393 3.232H22.7673L20.4273 6.712L22.8753 10H19.8993Z" fill="#325962"/>
</svg>
