<svg width="29" height="26" viewBox="0 0 29 26" fill="none" xmlns="http://www.w3.org/2000/svg">
<path fill-rule="evenodd" clip-rule="evenodd" d="M17.567 4.53395C18.2294 3.05738 19.4344 1.5877 20.7076 0.89389L21.1442 1.69516C20.1501 2.23689 18.9814 3.64975 18.3867 4.94834C19.2352 5.46676 19.9222 6.20685 19.2772 7.75814C18.6141 6.81813 17.4874 6.08047 16.3225 5.63774C15.6967 5.3999 15.051 5.2495 14.4315 5.22704C14.3863 5.22542 14.3413 5.22476 14.2964 5.22451C14.7842 4.56852 15.527 4.30969 16.2737 4.30356C16.7217 4.29986 17.1707 4.3873 17.567 4.53395ZM13.9248 6.15545C14.0408 6.1427 14.1575 6.13677 14.2743 6.1377C14.3151 6.13793 14.356 6.13886 14.3968 6.14049C14.8925 6.16031 15.4508 6.28258 15.9983 6.49066C17.4582 7.04563 18.7773 8.22901 18.9432 9.23355C18.9615 9.34431 18.9716 9.4626 18.9736 9.58778C19.1945 9.11864 19.4514 8.61433 19.7517 8.06901C19.9967 7.62435 20.4087 7.40217 21.0031 7.33516C21.1191 7.32241 21.2358 7.31649 21.3525 7.31742C21.3934 7.31764 21.4343 7.31857 21.4751 7.32021C21.9708 7.34003 22.5291 7.46229 23.0765 7.67038C24.5365 8.22534 25.8556 9.40872 26.0215 10.4133C26.1533 11.2119 25.8607 12.4022 25.1476 13.7399C24.4346 15.0777 23.3207 16.5618 21.9105 18.0004C19.0901 20.8778 15.0851 23.5726 10.7525 24.7077C9.89936 24.9312 9.20099 25.0585 8.69799 25.0966C8.32713 25.1246 8.11839 25.0842 8.01194 25.0606C8.01611 25.0518 8.01819 25.0461 8.01997 25.0413C8.02418 25.03 8.02668 25.0232 8.05112 24.9888C8.21658 24.7561 8.62327 24.3694 9.26922 23.9045C12.0788 21.8826 13.8519 20.4124 15.0165 19.1899C16.1811 17.9674 16.7386 16.9727 17.0605 15.9858C17.2486 15.4091 17.3604 14.8496 17.4818 14.2424C17.5473 13.9146 17.6156 13.5728 17.7003 13.207C16.9955 14.3675 16.0187 15.6102 14.8322 16.8207C12.0118 19.6981 8.0068 22.3929 3.6742 23.528C2.82108 23.7514 2.12271 23.8788 1.6197 23.9169C1.24885 23.9449 1.04011 23.9045 0.933655 23.8809C0.937828 23.872 0.93991 23.8664 0.941689 23.8616C0.945894 23.8503 0.948401 23.8435 0.972839 23.8091C1.13829 23.5764 1.54499 23.1897 2.19094 22.7248C5.00048 20.7029 6.77359 19.2327 7.93822 18.0102C9.10284 16.7876 9.66028 15.793 9.98217 14.806C10.1703 14.2294 10.2821 13.6699 10.4035 13.0627C10.6976 11.5917 11.0475 9.84116 12.6734 6.8893C12.9184 6.44464 13.3305 6.22246 13.9248 6.15545ZM14.6263 7.11837C14.5461 7.06879 14.4619 7.0437 14.3745 7.04066C12.863 6.98814 10.3976 13.5282 11.561 14.1359C12.2484 11.2294 13.4632 9.12775 14.6263 7.11837ZM24.6453 5.71366C25.3077 4.23709 26.5127 2.76741 27.7859 2.0736L28.2225 2.87487C27.2284 3.41661 26.0597 4.82946 25.4649 6.12806C26.3135 6.64647 27.0005 7.38656 26.3555 8.93785C25.6923 7.99784 24.5656 7.26019 23.4008 6.81745C22.7749 6.57961 22.1292 6.42921 21.5098 6.40676C21.4646 6.40513 21.4196 6.40448 21.3747 6.40422C21.8624 5.74823 22.6053 5.48941 23.352 5.48327C23.8 5.47957 24.249 5.56701 24.6453 5.71366ZM21.7045 8.29808C21.6244 8.24851 21.5402 8.22342 21.4528 8.22037C19.9413 8.16786 17.4759 14.7079 18.6393 15.3156C19.3266 12.4091 20.5414 10.3075 21.7045 8.29808Z" fill="black"/>
</svg>
